<?xml version="1.0" encoding="UTF-8" standalone="no"?>
<svg
   xmlns:dc="http://purl.org/dc/elements/1.1/"
   xmlns:cc="http://creativecommons.org/ns#"
   xmlns:rdf="http://www.w3.org/1999/02/22-rdf-syntax-ns#"
   xmlns:svg="http://www.w3.org/2000/svg"
   xmlns="http://www.w3.org/2000/svg"
   xmlns:sodipodi="http://sodipodi.sourceforge.net/DTD/sodipodi-0.dtd"
   xmlns:inkscape="http://www.inkscape.org/namespaces/inkscape"
   width="24"
   height="24"
   viewBox="0 0 24 24"
   id="svg3006"
   version="1.1"
   inkscape:version="0.48.5 r10040"
   sodipodi:docname="ic_nav_host_count.svg">
  <metadata
     id="metadata3014">
    <rdf:RDF>
      <cc:Work
         rdf:about="">
        <dc:format>image/svg+xml</dc:format>
        <dc:type
           rdf:resource="http://purl.org/dc/dcmitype/StillImage" />
        <dc:title />
      </cc:Work>
    </rdf:RDF>
  </metadata>
  <defs
     id="defs3012" />
  <sodipodi:namedview
     pagecolor="#ffffff"
     bordercolor="#666666"
     borderopacity="1"
     objecttolerance="10"
     gridtolerance="10"
     guidetolerance="10"
     inkscape:pageopacity="0"
     inkscape:pageshadow="2"
     inkscape:window-width="1920"
     inkscape:window-height="1017"
     id="namedview3010"
     showgrid="true"
     inkscape:zoom="19.666667"
     inkscape:cx="-1.8355698"
     inkscape:cy="11.197355"
     inkscape:window-x="-8"
     inkscape:window-y="-8"
     inkscape:window-maximized="1"
     inkscape:current-layer="svg3006"
     inkscape:snap-grids="true">
    <inkscape:grid
       type="xygrid"
       id="grid3219"
       empspacing="5"
       visible="true"
       enabled="true"
       snapvisiblegridlinesonly="true" />
  </sodipodi:namedview>
  <path
     style="fill:#000000;fill-opacity:1;stroke:none"
     d="M 4.75 2 C 3.2230986 2 2 3.2230986 2 4.75 L 2 19.25 C 2 20.776901 3.2230986 22 4.75 22 L 19.25 22 C 20.776901 22 22 20.776901 22 19.25 L 22 4.75 C 22 3.2230986 20.776901 2 19.25 2 L 4.75 2 z M 10.84375 5.53125 L 12.8125 5.53125 L 11.96875 8.8125 L 13.75 8.8125 L 14.59375 5.53125 L 16.5625 5.53125 L 15.6875 8.8125 L 17.40625 8.8125 L 17.40625 10.71875 L 15.21875 10.71875 L 14.59375 13.28125 L 16.375 13.28125 L 16.375 15.1875 L 14.125 15.1875 L 13.28125 18.46875 L 11.34375 18.46875 L 12.15625 15.1875 L 10.375 15.1875 L 9.53125 18.46875 L 7.59375 18.46875 L 8.4375 15.1875 L 6.59375 15.1875 L 6.59375 13.28125 L 8.90625 13.28125 L 9.53125 10.71875 L 7.625 10.71875 L 7.625 8.8125 L 10.03125 8.8125 L 10.84375 5.53125 z M 11.5 10.71875 L 10.84375 13.28125 L 12.625 13.28125 L 13.28125 10.71875 L 11.5 10.71875 z "
     id="rect3053" />
  <g
     inkscape:transform-center-x="0.85546875"
     style="font-size:7px;font-style:normal;font-weight:normal;line-height:125%;letter-spacing:0px;word-spacing:0px;fill:#000000;fill-opacity:1;stroke:none;font-family:Sans"
     id="text3073-7" />
  <g
     inkscape:transform-center-x="0.85546875"
     style="font-size:7px;font-style:normal;font-weight:normal;line-height:125%;letter-spacing:0px;word-spacing:0px;fill:#000000;fill-opacity:1;stroke:none;font-family:Sans"
     id="text3073-7-8" />
  <g
     inkscape:transform-center-x="0.85546875"
     style="font-size:7px;font-style:normal;font-weight:normal;line-height:125%;letter-spacing:0px;word-spacing:0px;fill:#000000;fill-opacity:1;stroke:none;font-family:Sans"
     id="text3073-7-8-4" />
</svg>
