<?xml version="1.0" encoding="UTF-8" standalone="no"?>
<svg
   xmlns:dc="http://purl.org/dc/elements/1.1/"
   xmlns:cc="http://creativecommons.org/ns#"
   xmlns:rdf="http://www.w3.org/1999/02/22-rdf-syntax-ns#"
   xmlns:svg="http://www.w3.org/2000/svg"
   xmlns="http://www.w3.org/2000/svg"
   xmlns:sodipodi="http://sodipodi.sourceforge.net/DTD/sodipodi-0.dtd"
   xmlns:inkscape="http://www.inkscape.org/namespaces/inkscape"
   width="24"
   height="24"
   viewBox="0 0 24 24"
   id="svg3006"
   version="1.1"
   inkscape:version="0.48.5 r10040"
   sodipodi:docname="ic_nav_network_mask.svg">
  <metadata
     id="metadata3014">
    <rdf:RDF>
      <cc:Work
         rdf:about="">
        <dc:format>image/svg+xml</dc:format>
        <dc:type
           rdf:resource="http://purl.org/dc/dcmitype/StillImage" />
        <dc:title></dc:title>
      </cc:Work>
    </rdf:RDF>
  </metadata>
  <defs
     id="defs3012" />
  <sodipodi:namedview
     pagecolor="#ffffff"
     bordercolor="#666666"
     borderopacity="1"
     objecttolerance="10"
     gridtolerance="10"
     guidetolerance="10"
     inkscape:pageopacity="0"
     inkscape:pageshadow="2"
     inkscape:window-width="1920"
     inkscape:window-height="1017"
     id="namedview3010"
     showgrid="true"
     inkscape:zoom="19.666667"
     inkscape:cx="12.601889"
     inkscape:cy="9.3338046"
     inkscape:window-x="-8"
     inkscape:window-y="-8"
     inkscape:window-maximized="1"
     inkscape:current-layer="svg3006"
     inkscape:snap-grids="true">
    <inkscape:grid
       type="xygrid"
       id="grid3219"
       empspacing="5"
       visible="true"
       enabled="true"
       snapvisiblegridlinesonly="true" />
  </sodipodi:namedview>
  <path
     style="fill:#000000;fill-opacity:1;stroke:none"
     d="M 4.75 2 C 3.2230986 2 2 3.2230986 2 4.75 L 2 19.25 C 2 20.776901 3.2230986 22 4.75 22 L 19.25 22 C 20.776901 22 22 20.776901 22 19.25 L 22 4.75 C 22 3.2230986 20.776901 2 19.25 2 L 4.75 2 z M 8.5 6 C 9.917088 6 11.175146 6.4424725 12 7.125 C 12.824598 6.4373429 14.076728 6 15.5 6 C 17.985281 6 20 7.3431458 20 9 C 20 9.681531 19.636812 10.308777 19.0625 10.8125 L 19.0625 17.875 C 19.0625 17.94452 19.00702 18 18.9375 18 L 18.21875 18 C 18.14923 18 18.09375 17.94452 18.09375 17.875 L 18.09375 11.46875 C 17.362889 11.810661 16.460657 12 15.5 12 C 14.076728 12 12.824598 11.562657 12 10.875 C 11.175146 11.557528 9.917088 12 8.5 12 C 6.0147186 12 4 10.656854 4 9 C 4 7.3431458 6.0147186 6 8.5 6 z M 8.46875 7 C 6.8118958 7 5.46875 7.8954305 5.46875 9 C 5.46875 10.104569 6.8118958 11 8.46875 11 C 10.125604 11 11.46875 10.104569 11.46875 9 C 11.46875 7.8954305 10.125604 7 8.46875 7 z M 15.5 7 C 13.843146 7 12.5 7.8954305 12.5 9 C 12.5 10.104569 13.843146 11 15.5 11 C 17.156854 11 18.5 10.104569 18.5 9 C 18.5 7.8954305 17.156854 7 15.5 7 z "
     id="rect3053" />
  <g
     inkscape:transform-center-x="0.85546875"
     style="font-size:7px;font-style:normal;font-weight:normal;line-height:125%;letter-spacing:0px;word-spacing:0px;fill:#000000;fill-opacity:1;stroke:none;font-family:Sans"
     id="text3073-7" />
  <g
     inkscape:transform-center-x="0.85546875"
     style="font-size:7px;font-style:normal;font-weight:normal;line-height:125%;letter-spacing:0px;word-spacing:0px;fill:#000000;fill-opacity:1;stroke:none;font-family:Sans"
     id="text3073-7-8" />
  <g
     inkscape:transform-center-x="0.85546875"
     style="font-size:7px;font-style:normal;font-weight:normal;line-height:125%;letter-spacing:0px;word-spacing:0px;fill:#000000;fill-opacity:1;stroke:none;font-family:Sans"
     id="text3073-7-8-4" />
</svg>
