<?xml version="1.0" encoding="UTF-8" standalone="no"?>
<svg
   xmlns:dc="http://purl.org/dc/elements/1.1/"
   xmlns:cc="http://creativecommons.org/ns#"
   xmlns:rdf="http://www.w3.org/1999/02/22-rdf-syntax-ns#"
   xmlns:svg="http://www.w3.org/2000/svg"
   xmlns="http://www.w3.org/2000/svg"
   xmlns:sodipodi="http://sodipodi.sourceforge.net/DTD/sodipodi-0.dtd"
   xmlns:inkscape="http://www.inkscape.org/namespaces/inkscape"
   width="24"
   height="24"
   viewBox="0 0 24 24"
   id="svg3006"
   version="1.1"
   inkscape:version="0.48.5 r10040"
   sodipodi:docname="ic_nav_binary.svg">
  <metadata
     id="metadata3014">
    <rdf:RDF>
      <cc:Work
         rdf:about="">
        <dc:format>image/svg+xml</dc:format>
        <dc:type
           rdf:resource="http://purl.org/dc/dcmitype/StillImage" />
      </cc:Work>
    </rdf:RDF>
  </metadata>
  <defs
     id="defs3012" />
  <sodipodi:namedview
     pagecolor="#ffffff"
     bordercolor="#666666"
     borderopacity="1"
     objecttolerance="10"
     gridtolerance="10"
     guidetolerance="10"
     inkscape:pageopacity="0"
     inkscape:pageshadow="2"
     inkscape:window-width="1920"
     inkscape:window-height="1017"
     id="namedview3010"
     showgrid="true"
     inkscape:zoom="19.666667"
     inkscape:cx="4.4440911"
     inkscape:cy="18.691472"
     inkscape:window-x="-8"
     inkscape:window-y="-8"
     inkscape:window-maximized="1"
     inkscape:current-layer="svg3006"
     inkscape:snap-grids="true">
    <inkscape:grid
       type="xygrid"
       id="grid3219"
       empspacing="5"
       visible="true"
       enabled="true"
       snapvisiblegridlinesonly="true" />
  </sodipodi:namedview>
  <path
     style="fill:#000000;fill-opacity:1;stroke:none"
     d="M 4.75 2 C 3.2230986 2 2 3.2230986 2 4.75 L 2 19.25 C 2 20.776901 3.2230986 22 4.75 22 L 19.25 22 C 20.776901 22 22 20.776901 22 19.25 L 22 4.75 C 22 3.2230986 20.776901 2 19.25 2 L 4.75 2 z M 6.9375 4.5625 L 11.65625 4.5625 C 13.277336 4.5625146 14.495434 4.8535299 15.3125 5.46875 C 16.129547 6.0839974 16.531239 7.0260538 16.53125 8.25 C 16.531239 9.18751 16.29426 9.9101655 15.8125 10.4375 C 15.33072 10.964852 14.618481 11.259122 13.6875 11.34375 C 14.800772 11.454435 15.655589 11.830736 16.21875 12.46875 C 16.78189 13.106777 17.062489 14.010422 17.0625 15.15625 C 17.062489 16.562503 16.627593 17.587241 15.78125 18.21875 C 14.934887 18.850261 13.563794 19.15625 11.65625 19.15625 L 6.9375 19.15625 L 6.9375 4.5625 z M 9.75 6.84375 L 9.75 10.25 L 11.65625 10.25 C 12.38541 10.250009 12.909498 10.104176 13.21875 9.84375 C 13.527987 9.5833429 13.656242 9.1614683 13.65625 8.5625 C 13.656242 7.9635529 13.503247 7.5201939 13.1875 7.25 C 12.871738 6.9798299 12.372389 6.8437623 11.65625 6.84375 L 9.75 6.84375 z M 9.75 12.53125 L 9.75 16.84375 L 11.65625 16.84375 C 12.574212 16.843752 13.194654 16.687502 13.5625 16.375 C 13.93033 16.062503 14.124992 15.524743 14.125 14.75 C 14.124992 13.962245 13.946606 13.407558 13.5625 13.0625 C 13.178378 12.717454 12.54166 12.531257 11.65625 12.53125 L 9.75 12.53125 z "
     id="rect3053" />
  <g
     inkscape:transform-center-x="0.85546875"
     style="font-size:7px;font-style:normal;font-weight:normal;line-height:125%;letter-spacing:0px;word-spacing:0px;fill:#000000;fill-opacity:1;stroke:none;font-family:Sans"
     id="text3073-7" />
  <g
     inkscape:transform-center-x="0.85546875"
     style="font-size:7px;font-style:normal;font-weight:normal;line-height:125%;letter-spacing:0px;word-spacing:0px;fill:#000000;fill-opacity:1;stroke:none;font-family:Sans"
     id="text3073-7-8" />
  <g
     inkscape:transform-center-x="0.85546875"
     style="font-size:7px;font-style:normal;font-weight:normal;line-height:125%;letter-spacing:0px;word-spacing:0px;fill:#000000;fill-opacity:1;stroke:none;font-family:Sans"
     id="text3073-7-8-4" />
</svg>
