<?xml version="1.0" encoding="UTF-8" standalone="no"?>
<svg
   xmlns:dc="http://purl.org/dc/elements/1.1/"
   xmlns:cc="http://creativecommons.org/ns#"
   xmlns:rdf="http://www.w3.org/1999/02/22-rdf-syntax-ns#"
   xmlns:svg="http://www.w3.org/2000/svg"
   xmlns="http://www.w3.org/2000/svg"
   xmlns:sodipodi="http://sodipodi.sourceforge.net/DTD/sodipodi-0.dtd"
   xmlns:inkscape="http://www.inkscape.org/namespaces/inkscape"
   width="24"
   height="24"
   viewBox="0 0 24 24"
   id="svg3006"
   version="1.1"
   inkscape:version="0.48.5 r10040"
   sodipodi:docname="ic_nav_sign_and_magnitude.svg">
  <metadata
     id="metadata3014">
    <rdf:RDF>
      <cc:Work
         rdf:about="">
        <dc:format>image/svg+xml</dc:format>
        <dc:type
           rdf:resource="http://purl.org/dc/dcmitype/StillImage" />
        <dc:title></dc:title>
      </cc:Work>
    </rdf:RDF>
  </metadata>
  <defs
     id="defs3012" />
  <sodipodi:namedview
     pagecolor="#ffffff"
     bordercolor="#666666"
     borderopacity="1"
     objecttolerance="10"
     gridtolerance="10"
     guidetolerance="10"
     inkscape:pageopacity="0"
     inkscape:pageshadow="2"
     inkscape:window-width="1920"
     inkscape:window-height="1017"
     id="namedview3010"
     showgrid="true"
     inkscape:zoom="19.666667"
     inkscape:cx="4.4440911"
     inkscape:cy="18.691472"
     inkscape:window-x="-8"
     inkscape:window-y="-8"
     inkscape:window-maximized="1"
     inkscape:current-layer="svg3006"
     inkscape:snap-grids="true">
    <inkscape:grid
       type="xygrid"
       id="grid3219"
       empspacing="5"
       visible="true"
       enabled="true"
       snapvisiblegridlinesonly="true" />
  </sodipodi:namedview>
  <path
     style="fill:#000000;fill-opacity:1;stroke:none"
     d="M 4.75 2 C 3.2230986 2 2 3.2230986 2 4.75 L 2 19.25 C 2 20.776901 3.2230986 22 4.75 22 L 19.25 22 C 20.776901 22 22 20.776901 22 19.25 L 22 4.75 C 22 3.2230986 20.776901 2 19.25 2 L 4.75 2 z M 11.96875 4.3125 C 12.639316 4.3125148 13.29817 4.37827 13.96875 4.53125 C 14.639314 4.6842593 15.311189 4.9192851 15.96875 5.21875 L 15.96875 8.03125 C 15.350251 7.5950636 14.731762 7.2591265 14.09375 7.03125 C 13.455722 6.8033978 12.812493 6.6875125 12.1875 6.6875 C 11.49088 6.6875125 10.964839 6.8450644 10.59375 7.125 C 10.222652 7.4049597 10.031246 7.791678 10.03125 8.3125 C 10.031246 8.7161563 10.167313 9.0488382 10.4375 9.3125 C 10.707678 9.5761815 11.26562 9.8684989 12.125 10.1875 L 13.375 10.65625 C 14.546866 11.085946 15.415355 11.665372 15.96875 12.375 C 16.522125 13.084641 16.781239 13.981776 16.78125 15.0625 C 16.781239 16.533857 16.36913 17.61784 15.5 18.34375 C 14.630851 19.069662 13.289055 19.4375 11.53125 19.4375 C 10.808589 19.4375 10.100907 19.360026 9.375 19.1875 C 8.6490858 19.014974 7.9583313 18.744792 7.28125 18.40625 L 7.28125 15.4375 C 8.0494771 15.984378 8.7805961 16.389326 9.5 16.65625 C 10.219397 16.923179 10.92187 17.062502 11.625 17.0625 C 12.334629 17.062502 12.890618 16.884768 13.28125 16.5625 C 13.671867 16.240237 13.874992 15.79818 13.875 15.21875 C 13.874992 14.782556 13.729159 14.391281 13.46875 14.0625 C 13.208326 13.733729 12.838535 13.501308 12.34375 13.3125 L 10.9375 12.75 C 9.4856736 12.196622 8.4830704 11.639981 7.96875 11.03125 C 7.4544256 10.422535 7.2187487 9.5911554 7.21875 8.5625 C 7.2187487 7.2408973 7.6223942 6.1927213 8.46875 5.4375 C 9.3151008 4.6823061 10.490881 4.3125148 11.96875 4.3125 z "
     id="rect3053" />
  <g
     inkscape:transform-center-x="0.85546875"
     style="font-size:7px;font-style:normal;font-weight:normal;line-height:125%;letter-spacing:0px;word-spacing:0px;fill:#000000;fill-opacity:1;stroke:none;font-family:Sans"
     id="text3073-7" />
  <g
     inkscape:transform-center-x="0.85546875"
     style="font-size:7px;font-style:normal;font-weight:normal;line-height:125%;letter-spacing:0px;word-spacing:0px;fill:#000000;fill-opacity:1;stroke:none;font-family:Sans"
     id="text3073-7-8" />
  <g
     inkscape:transform-center-x="0.85546875"
     style="font-size:7px;font-style:normal;font-weight:normal;line-height:125%;letter-spacing:0px;word-spacing:0px;fill:#000000;fill-opacity:1;stroke:none;font-family:Sans"
     id="text3073-7-8-4" />
</svg>
