<?xml version="1.0" encoding="UTF-8" standalone="no"?>
<svg
   xmlns:dc="http://purl.org/dc/elements/1.1/"
   xmlns:cc="http://creativecommons.org/ns#"
   xmlns:rdf="http://www.w3.org/1999/02/22-rdf-syntax-ns#"
   xmlns:svg="http://www.w3.org/2000/svg"
   xmlns="http://www.w3.org/2000/svg"
   xmlns:sodipodi="http://sodipodi.sourceforge.net/DTD/sodipodi-0.dtd"
   xmlns:inkscape="http://www.inkscape.org/namespaces/inkscape"
   width="24"
   height="24"
   viewBox="0 0 24 24"
   id="svg3006"
   version="1.1"
   inkscape:version="0.48.5 r10040"
   sodipodi:docname="ic_nav_network_layer.svg">
  <metadata
     id="metadata3014">
    <rdf:RDF>
      <cc:Work
         rdf:about="">
        <dc:format>image/svg+xml</dc:format>
        <dc:type
           rdf:resource="http://purl.org/dc/dcmitype/StillImage" />
        <dc:title />
      </cc:Work>
    </rdf:RDF>
  </metadata>
  <defs
     id="defs3012" />
  <sodipodi:namedview
     pagecolor="#ffffff"
     bordercolor="#666666"
     borderopacity="1"
     objecttolerance="10"
     gridtolerance="10"
     guidetolerance="10"
     inkscape:pageopacity="0"
     inkscape:pageshadow="2"
     inkscape:window-width="1920"
     inkscape:window-height="1017"
     id="namedview3010"
     showgrid="true"
     inkscape:zoom="19.666667"
     inkscape:cx="-12.386417"
     inkscape:cy="18.691472"
     inkscape:window-x="-8"
     inkscape:window-y="-8"
     inkscape:window-maximized="1"
     inkscape:current-layer="svg3006"
     inkscape:snap-grids="true">
    <inkscape:grid
       type="xygrid"
       id="grid3219"
       empspacing="5"
       visible="true"
       enabled="true"
       snapvisiblegridlinesonly="true" />
  </sodipodi:namedview>
  <path
     style="fill:#000000;fill-opacity:1;stroke:none"
     d="M 4.75 2 C 3.223099 2 2 3.2230986 2 4.75 L 2 19.25 C 2 20.776901 3.223099 22 4.75 22 L 19.25 22 C 20.776901 22 22 20.776901 22 19.25 L 22 4.75 C 22 3.2230986 20.776901 2 19.25 2 L 4.75 2 z M 4.5 5.5 L 19.5 5.5 L 19.5 6.5 L 19.5 17.5 L 19.5 18.5 L 18.5 18.5 L 5.5 18.5 L 4.5 18.5 L 4.5 17.5 L 4.5 15.5 L 4.5 14.5 L 4.5 12.5 L 4.5 11.5 L 4.5 9.5 L 4.5 8.5 L 4.5 6.5 L 4.5 5.5 z M 5.5 6.5 L 5.5 8.5 L 18.5 8.5 L 18.5 6.5 L 5.5 6.5 z M 5.5 9.5 L 5.5 11.5 L 18.5 11.5 L 18.5 9.5 L 5.5 9.5 z M 5.5 12.5 L 5.5 14.5 L 18.5 14.5 L 18.5 12.5 L 5.5 12.5 z M 5.5 15.5 L 5.5 17.5 L 18.5 17.5 L 18.5 15.5 L 5.5 15.5 z "
     id="path5125" />
  <g
     inkscape:transform-center-x="0.85546875"
     style="font-size:7px;font-style:normal;font-weight:normal;line-height:125%;letter-spacing:0px;word-spacing:0px;fill:#000000;fill-opacity:1;stroke:none;font-family:Sans"
     id="text3073-7" />
  <g
     inkscape:transform-center-x="0.85546875"
     style="font-size:7px;font-style:normal;font-weight:normal;line-height:125%;letter-spacing:0px;word-spacing:0px;fill:#000000;fill-opacity:1;stroke:none;font-family:Sans"
     id="text3073-7-8" />
  <g
     inkscape:transform-center-x="0.85546875"
     style="font-size:7px;font-style:normal;font-weight:normal;line-height:125%;letter-spacing:0px;word-spacing:0px;fill:#000000;fill-opacity:1;stroke:none;font-family:Sans"
     id="text3073-7-8-4" />
</svg>
