<?xml version="1.0" encoding="UTF-8" standalone="no"?>
<svg
   xmlns:dc="http://purl.org/dc/elements/1.1/"
   xmlns:cc="http://creativecommons.org/ns#"
   xmlns:rdf="http://www.w3.org/1999/02/22-rdf-syntax-ns#"
   xmlns:svg="http://www.w3.org/2000/svg"
   xmlns="http://www.w3.org/2000/svg"
   xmlns:sodipodi="http://sodipodi.sourceforge.net/DTD/sodipodi-0.dtd"
   xmlns:inkscape="http://www.inkscape.org/namespaces/inkscape"
   width="24"
   height="24"
   viewBox="0 0 24 24"
   id="svg3006"
   version="1.1"
   inkscape:version="0.48.5 r10040"
   sodipodi:docname="ic_nav_logic_gate.svg">
  <metadata
     id="metadata3014">
    <rdf:RDF>
      <cc:Work
         rdf:about="">
        <dc:format>image/svg+xml</dc:format>
        <dc:type
           rdf:resource="http://purl.org/dc/dcmitype/StillImage" />
        <dc:title />
      </cc:Work>
    </rdf:RDF>
  </metadata>
  <defs
     id="defs3012" />
  <sodipodi:namedview
     pagecolor="#ffffff"
     bordercolor="#666666"
     borderopacity="1"
     objecttolerance="10"
     gridtolerance="10"
     guidetolerance="10"
     inkscape:pageopacity="0"
     inkscape:pageshadow="2"
     inkscape:window-width="1920"
     inkscape:window-height="1017"
     id="namedview3010"
     showgrid="true"
     inkscape:zoom="27.812867"
     inkscape:cx="8.8802284"
     inkscape:cy="10.627013"
     inkscape:window-x="-8"
     inkscape:window-y="-8"
     inkscape:window-maximized="1"
     inkscape:current-layer="svg3006"
     inkscape:snap-grids="true">
    <inkscape:grid
       type="xygrid"
       id="grid3219"
       empspacing="5"
       visible="true"
       enabled="true"
       snapvisiblegridlinesonly="true" />
  </sodipodi:namedview>
  <path
     style="fill:#000000;fill-opacity:1;stroke:none"
     d="M 4.75 2 C 3.2230986 2 2 3.2230986 2 4.75 L 2 19.25 C 2 20.776901 3.2230986 22 4.75 22 L 19.25 22 C 20.776901 22 22 20.776901 22 19.25 L 22 4.75 C 22 3.2230986 20.776901 2 19.25 2 L 4.75 2 z M 6.53125 5.15625 L 12 5.15625 C 14.916151 5.5459578 17.264084 7.8013992 17.8125 10.6875 L 19 10.6875 C 19.678356 10.6875 20.25 11.227894 20.25 11.90625 L 20.25 12.1875 C 20.25 12.865856 19.678356 13.4375 19 13.4375 L 17.75 13.4375 C 17.161168 16.266631 14.876241 18.459376 12 18.84375 L 6.53125 18.84375 L 6.53125 17.0625 L 5 17.0625 C 4.3216442 17.0625 3.75 16.522106 3.75 15.84375 L 3.75 15.5625 C 3.75 14.884144 4.3216442 14.34375 5 14.34375 L 6.53125 14.34375 L 6.53125 9.78125 L 5 9.78125 C 4.3216442 9.78125 3.75 9.2408559 3.75 8.5625 L 3.75 8.28125 C 3.75 7.6028941 4.3216442 7.0625 5 7.0625 L 6.53125 7.0625 L 6.53125 5.15625 z "
     id="rect3053" />
  <g
     inkscape:transform-center-x="0.85546875"
     style="font-size:7px;font-style:normal;font-weight:normal;line-height:125%;letter-spacing:0px;word-spacing:0px;fill:#000000;fill-opacity:1;stroke:none;font-family:Sans"
     id="text3073-7" />
  <g
     inkscape:transform-center-x="0.85546875"
     style="font-size:7px;font-style:normal;font-weight:normal;line-height:125%;letter-spacing:0px;word-spacing:0px;fill:#000000;fill-opacity:1;stroke:none;font-family:Sans"
     id="text3073-7-8" />
  <g
     inkscape:transform-center-x="0.85546875"
     style="font-size:7px;font-style:normal;font-weight:normal;line-height:125%;letter-spacing:0px;word-spacing:0px;fill:#000000;fill-opacity:1;stroke:none;font-family:Sans"
     id="text3073-7-8-4" />
</svg>
