<?xml version="1.0" encoding="UTF-8" standalone="no"?>
<svg
   xmlns:dc="http://purl.org/dc/elements/1.1/"
   xmlns:cc="http://creativecommons.org/ns#"
   xmlns:rdf="http://www.w3.org/1999/02/22-rdf-syntax-ns#"
   xmlns:svg="http://www.w3.org/2000/svg"
   xmlns="http://www.w3.org/2000/svg"
   xmlns:sodipodi="http://sodipodi.sourceforge.net/DTD/sodipodi-0.dtd"
   xmlns:inkscape="http://www.inkscape.org/namespaces/inkscape"
   width="24"
   height="24"
   viewBox="0 0 24 24"
   id="svg3006"
   version="1.1"
   inkscape:version="0.48.5 r10040"
   sodipodi:docname="ic_nav_high_scores.svg">
  <metadata
     id="metadata3014">
    <rdf:RDF>
      <cc:Work
         rdf:about="">
        <dc:format>image/svg+xml</dc:format>
        <dc:type
           rdf:resource="http://purl.org/dc/dcmitype/StillImage" />
        <dc:title />
      </cc:Work>
    </rdf:RDF>
  </metadata>
  <defs
     id="defs3012" />
  <sodipodi:namedview
     pagecolor="#ffffff"
     bordercolor="#666666"
     borderopacity="1"
     objecttolerance="10"
     gridtolerance="10"
     guidetolerance="10"
     inkscape:pageopacity="0"
     inkscape:pageshadow="2"
     inkscape:window-width="1920"
     inkscape:window-height="1017"
     id="namedview3010"
     showgrid="true"
     inkscape:zoom="27.812867"
     inkscape:cx="18.301949"
     inkscape:cy="13.575556"
     inkscape:window-x="-8"
     inkscape:window-y="-8"
     inkscape:window-maximized="1"
     inkscape:current-layer="svg3006">
    <inkscape:grid
       type="xygrid"
       id="grid3300"
       empspacing="5"
       visible="true"
       enabled="true"
       snapvisiblegridlinesonly="true" />
  </sodipodi:namedview>
  <path
     style="fill:#000000;fill-opacity:1;stroke:none"
     d="M 3.25 11.84375 C 2.5050199 11.84375 1.90625 12.44252 1.90625 13.1875 L 1.90625 20.5 C 1.90625 21.24498 2.5050199 21.84375 3.25 21.84375 L 21.1875 21.84375 C 21.93248 21.84375 22.53125 21.24498 22.53125 20.5 L 22.53125 13.1875 C 22.53125 12.44252 21.93248 11.84375 21.1875 11.84375 L 3.25 11.84375 z M 5.875 12.9375 C 6.5911433 12.937507 7.0484995 13.107103 7.28125 13.4375 C 7.5139939 13.76791 7.6249964 14.307297 7.625 15.0625 C 7.6249964 15.358729 7.6009079 15.589197 7.5 15.78125 L 5.75 19.09375 L 7.625 19.09375 L 7.625 20 L 4.125 20 L 4.125 19.0625 L 5.84375 15.90625 C 6.03255 15.561202 6.1249979 15.067713 6.125 14.46875 C 6.1249979 14.156256 6.0208313 14.000006 5.8125 14 C 5.5976546 14.000006 5.4999985 14.117193 5.5 14.3125 L 5.5 15.5 L 4.125 15.5 L 4.125 14.28125 C 4.1249999 13.379564 4.7161451 12.937507 5.875 12.9375 z M 18.875 12.9375 C 19.333982 12.937507 19.75195 13.020189 20.09375 13.21875 C 20.435543 13.417324 20.593746 13.757819 20.59375 14.1875 L 20.59375 15.125 C 20.593746 15.6849 20.346351 16.057947 19.8125 16.25 C 20.359372 16.409509 20.624996 16.856123 20.625 17.5625 L 20.625 18.59375 C 20.624996 19.567058 20.030596 20.0625 18.875 20.0625 C 17.703124 20.0625 17.125 19.635417 17.125 18.75 L 17.125 17.0625 L 18.53125 17.0625 L 18.53125 18.71875 C 18.531248 18.891277 18.626951 19.000001 18.8125 19 C 18.998045 19.000001 19.093748 18.891277 19.09375 18.71875 L 19.09375 17.09375 C 19.093748 16.908206 19.061521 16.785485 18.96875 16.71875 C 18.875975 16.652022 18.691405 16.625003 18.4375 16.625 L 18.4375 15.84375 C 18.876951 15.843754 19.093748 15.710942 19.09375 15.4375 L 19.09375 14.1875 C 19.093748 14.047532 18.998045 13.968756 18.8125 13.96875 C 18.620441 13.968756 18.531248 14.047532 18.53125 14.1875 L 18.53125 15.46875 L 17.15625 15.46875 L 17.15625 14.1875 C 17.15625 13.360684 17.729166 12.937507 18.875 12.9375 z "
     id="rect3053" />
  <path
     style="fill:#000000;fill-opacity:1;stroke:none"
     d="M 8.78125 2 C 8.0362699 2 7.4375 2.5987699 7.4375 3.34375 L 7.4375 10.65625 C 7.4375 11.40123 8.0362699 12 8.78125 12 L 15.65625 12 C 16.40123 12 17 11.40123 17 10.65625 L 17 3.34375 C 17 2.5987699 16.40123 2 15.65625 2 L 8.78125 2 z M 11.5 3.40625 L 12.84375 3.40625 L 12.84375 10.40625 L 11.3125 10.40625 L 11.3125 5.25 L 10.71875 5.25 L 10.71875 4.25 C 10.943359 4.2500062 11.126627 4.1608135 11.28125 3.96875 C 11.435872 3.7766993 11.499999 3.5885485 11.5 3.40625 z "
     id="rect3053-1" />
</svg>
